<?xml version="1.0" encoding="UTF-8"?> <svg xmlns="http://www.w3.org/2000/svg" width="120" height="32" viewBox="0 0 120 32" fill="none"> <path d="M54.6523 16.4761C54.6523 15.1402 54.9009 13.9674 55.3979 12.9578C55.9105 11.9481 56.6018 11.1714 57.4716 10.6278C58.3415 10.0841 59.3123 9.81226 60.3841 9.81226C61.3006 9.81226 62.1006 9.99866 62.784 10.3715C63.483 10.7443 64.0189 11.2336 64.3917 11.8394V9.99866H68.376V23.0001H64.3917V21.1594C64.0034 21.7652 63.4597 22.2545 62.7607 22.6273C62.0773 23.0001 61.2773 23.1865 60.3608 23.1865C59.3046 23.1865 58.3415 22.9146 57.4716 22.371C56.6018 21.8118 55.9105 21.0273 55.3979 20.0177C54.9009 18.9925 54.6523 17.8119 54.6523 16.4761ZM64.3917 16.4994C64.3917 15.5052 64.1121 14.7208 63.5529 14.1461C63.0093 13.5713 62.3413 13.284 61.5491 13.284C60.7569 13.284 60.0812 13.5713 59.522 14.1461C58.9784 14.7053 58.7065 15.4819 58.7065 16.4761C58.7065 17.4702 58.9784 18.2624 59.522 18.8527C60.0812 19.4274 60.7569 19.7148 61.5491 19.7148C62.3413 19.7148 63.0093 19.4274 63.5529 18.8527C64.1121 18.2779 64.3917 17.4935 64.3917 16.4994Z" fill="black"></path> <path d="M69.5343 16.4761C69.5343 15.1402 69.7828 13.9674 70.2799 12.9578C70.7925 11.9481 71.4837 11.1714 72.3536 10.6278C73.2235 10.0841 74.1943 9.81226 75.2661 9.81226C76.1826 9.81226 76.9825 9.99866 77.666 10.3715C78.365 10.7443 78.9009 11.2336 79.2737 11.8394V9.99866H83.258V23.0001H79.2737V21.1594C78.8854 21.7652 78.3417 22.2545 77.6427 22.6273C76.9592 23.0001 76.1593 23.1865 75.2428 23.1865C74.1865 23.1865 73.2235 22.9146 72.3536 22.371C71.4837 21.8118 70.7925 21.0273 70.2799 20.0177C69.7828 18.9925 69.5343 17.8119 69.5343 16.4761ZM79.2737 16.4994C79.2737 15.5052 78.9941 14.7208 78.4349 14.1461C77.8912 13.5713 77.2233 13.284 76.4311 13.284C75.6389 13.284 74.9632 13.5713 74.404 14.1461C73.8603 14.7053 73.5885 15.4819 73.5885 16.4761C73.5885 17.4702 73.8603 18.2624 74.404 18.8527C74.9632 19.4274 75.6389 19.7148 76.4311 19.7148C77.2233 19.7148 77.8912 19.4274 78.4349 18.8527C78.9941 18.2779 79.2737 17.4935 79.2737 16.4994Z" fill="black"></path> <path d="M89.1928 11.8394C89.5811 11.2336 90.117 10.7443 90.8005 10.3715C91.4839 9.99866 92.2839 9.81226 93.2004 9.81226C94.2722 9.81226 95.243 10.0841 96.1129 10.6278C96.9827 11.1714 97.6662 11.9481 98.1633 12.9578C98.6759 13.9674 98.9322 15.1402 98.9322 16.4761C98.9322 17.8119 98.6759 18.9925 98.1633 20.0177C97.6662 21.0273 96.9827 21.8118 96.1129 22.371C95.243 22.9146 94.2722 23.1865 93.2004 23.1865C92.2994 23.1865 91.4995 23.0001 90.8005 22.6273C90.117 22.2545 89.5811 21.7729 89.1928 21.1827V29.1979H85.2085V9.99866H89.1928V11.8394ZM94.878 16.4761C94.878 15.4819 94.5984 14.7053 94.0392 14.1461C93.4955 13.5713 92.8198 13.284 92.0121 13.284C91.2199 13.284 90.5442 13.5713 89.985 14.1461C89.4413 14.7208 89.1695 15.5052 89.1695 16.4994C89.1695 17.4935 89.4413 18.2779 89.985 18.8527C90.5442 19.4274 91.2199 19.7148 92.0121 19.7148C92.8043 19.7148 93.48 19.4274 94.0392 18.8527C94.5984 18.2624 94.878 17.4702 94.878 16.4761Z" fill="black"></path> <path d="M104.075 5.75806V23.0001H100.09V5.75806H104.075Z" fill="black"></path> <path d="M119.544 9.99866L111.389 29.1746H107.102L110.084 22.5574L104.795 9.99866H109.246L112.251 18.1304L115.234 9.99866H119.544Z" fill="black"></path> <path fill-rule="evenodd" clip-rule="evenodd" d="M12.5637 4.28243C18.1214 -1.03361 26.8787 -1.03359 32.4363 4.28243L41.6035 13.051C45.9936 17.2503 46.1483 24.2134 41.9491 28.6035C37.7498 32.9936 30.7867 33.1484 26.3966 28.9491L22.5 25.222L18.6035 28.9491C14.2133 33.1484 7.25023 32.9936 3.05096 28.6035C-1.14831 24.2134 -0.993577 17.2503 3.39657 13.051L12.5637 4.28243Z" fill="#E6E51E"></path> <path fill-rule="evenodd" clip-rule="evenodd" d="M19.2413 11.2392C21.0661 9.50131 23.9337 9.50131 25.7585 11.2392L33.9309 19.0225C34.4708 19.5367 34.4917 20.3912 33.9775 20.9311C33.4633 21.471 32.6088 21.4919 32.0689 20.9777L23.8965 13.1944C23.1144 12.4496 21.8854 12.4496 21.1034 13.1944L12.9309 20.9777C12.391 21.4919 11.5365 21.471 11.0223 20.9311C10.5081 20.3912 10.529 19.5367 11.0689 19.0225L19.2413 11.2392Z" fill="black"></path> <path fill-rule="evenodd" clip-rule="evenodd" d="M34.65 16.25C35.3956 16.25 36 16.8544 36 17.6V21.6C36 22.3456 35.3956 22.95 34.65 22.95H30.65C29.9045 22.95 29.3 22.3456 29.3 21.6C29.3 20.8544 29.9045 20.25 30.65 20.25H33.3V17.6C33.3 16.8544 33.9045 16.25 34.65 16.25Z" fill="black"></path> </svg> 