<?xml version="1.0" encoding="UTF-8"?> <svg xmlns="http://www.w3.org/2000/svg" width="45" height="32" viewBox="0 0 45 32" fill="none"> <path fill-rule="evenodd" clip-rule="evenodd" d="M12.5637 3.98702C18.1214 -1.32902 26.8787 -1.329 32.4363 3.98702L41.6035 12.7556C45.9936 16.9548 46.1483 23.9179 41.9491 28.3081C37.7498 32.6982 30.7867 32.853 26.3966 28.6537L22.5 24.9266L18.6035 28.6537C14.2133 32.853 7.25023 32.6982 3.05096 28.3081C-1.14831 23.9179 -0.993577 16.9548 3.39657 12.7556L12.5637 3.98702Z" fill="white"></path> <path fill-rule="evenodd" clip-rule="evenodd" d="M19.2413 10.9438C21.0661 9.2059 23.9337 9.2059 25.7585 10.9438L33.9309 18.7271C34.4708 19.2413 34.4917 20.0958 33.9775 20.6357C33.4633 21.1756 32.6088 21.1964 32.0689 20.6823L23.8965 12.899C23.1144 12.1542 21.8854 12.1542 21.1034 12.899L12.9309 20.6823C12.391 21.1964 11.5365 21.1756 11.0223 20.6357C10.5081 20.0958 10.529 19.2413 11.0689 18.7271L19.2413 10.9438Z" fill="black"></path> <path fill-rule="evenodd" clip-rule="evenodd" d="M34.65 15.9546C35.3956 15.9546 36 16.559 36 17.3046V21.3046C36 22.0502 35.3956 22.6546 34.65 22.6546H30.65C29.9045 22.6546 29.3 22.0502 29.3 21.3046C29.3 20.559 29.9045 19.9546 30.65 19.9546H33.3V17.3046C33.3 16.559 33.9045 15.9546 34.65 15.9546Z" fill="black"></path> </svg> 