<?xml version="1.0" encoding="UTF-8"?> <svg xmlns="http://www.w3.org/2000/svg" width="32" height="32" viewBox="0 0 32 32" fill="none"> <path d="M18 15.4999C18 20.7465 13.9706 25 8.99985 25C4.02914 25 0 20.7478 0 15.4999C0 10.2519 4.02944 6 8.99985 6C13.9703 6 18 10.2532 18 15.4999Z" fill="white"></path> <path d="M28 15.5C28 20.1946 25.9852 24 23.5 24C21.0149 24 19 20.1934 19 15.5C19 10.8066 21.0149 7 23.5 7C25.9852 7 28 10.8066 28 15.5Z" fill="white"></path> <path d="M32 15.5C32 19.6423 31.3284 23 30.5 23C29.6717 23 29 19.6411 29 15.5C29 11.3589 29.6717 8 30.5003 8C31.3289 8 32 11.358 32 15.5Z" fill="white"></path> </svg> 