<?xml version="1.0" encoding="UTF-8"?> <svg xmlns="http://www.w3.org/2000/svg" width="552" height="340" viewBox="0 0 552 340" fill="none"> <path fill-rule="evenodd" clip-rule="evenodd" d="M46 0C71.4051 0 92 20.5949 92 46C92 20.5949 112.595 0 138 0C163.405 0 184 20.5949 184 46C184 20.5949 204.595 0 230 0C255.405 0 276 20.5949 276 46C276 20.5949 296.595 0 322 0C347.405 0 368 20.5949 368 46C368 20.5949 388.595 0 414 0C439.405 0 460 20.5949 460 46C460 20.5949 480.595 0 506 0C531.405 0 552 20.5949 552 46V294C552 319.405 531.405 340 506 340C480.595 340 460 319.405 460 294C460 319.405 439.405 340 414 340C388.595 340 368 319.405 368 294C368 319.405 347.405 340 322 340C296.595 340 276 319.405 276 294C276 319.405 255.405 340 230 340C204.595 340 184 319.405 184 294C184 319.405 163.405 340 138 340C112.595 340 92 319.405 92 294C92 319.405 71.4051 340 46 340C20.5949 340 0 319.405 0 294V46C0 20.5949 20.5949 0 46 0Z" fill="#466CF3"></path> </svg> 